<?xml version="1.0" encoding="UTF-8"?>
<!DOCTYPE svg PUBLIC "-//W3C//DTD SVG 1.1//EN" "http://www.w3.org/Graphics/SVG/1.1/DTD/svg11.dtd">
<!-- Creator: CorelDRAW 2021 (64 Bit) -->
<svg xmlns="http://www.w3.org/2000/svg" xml:space="preserve" width="140mm" height="140mm" version="1.1" style="shape-rendering:geometricPrecision; text-rendering:geometricPrecision; image-rendering:optimizeQuality; fill-rule:evenodd; clip-rule:evenodd"
viewBox="0 0 14000000 14000000"
 xmlns:xlink="http://www.w3.org/1999/xlink"
 xmlns:xodm="http://www.corel.com/coreldraw/odm/2003">
 <defs>
  <style type="text/css">
   <![CDATA[
    .fil0 {fill:#17408F}
   ]]>
  </style>
 </defs>
 <g id="Camada_x0020_1">
  <metadata id="CorelCorpID_0Corel-Layer"/>
  <g id="g1027">
   <circle id="circle1007" class="fil0" cx="6999440" cy="7007111" r="872139"/>
   <g id="g1025">
    <path id="path1009" class="fil0" d="M5935830 6432770c105750,0 191490,-85740 191490,-191440 140,-598530 11960,-1269970 19180,-1742230 -9910,-864050 59820,-1753900 512600,-1767660 292700,69930 538850,370110 738630,561890l1094760 -1418640c-467360,-441860 -1146690,-1069250 -1877660,-1184230 -333800,-52500 -701840,33390 -981980,251460 -860120,883790 -838620,2678250 118160,5349140 0,30 70,220 70,300 22580,83420 98340,141410 184790,141410 0,0 0,0 0,0l-40 0z"/>
    <path id="path1011" class="fil0" d="M7573770 5943500c0,105750 85740,191480 191450,191480 598530,190 1269970,11970 1742230,19190 864040,-9910 1753890,59820 1767650,512600 -69920,292700 -370100,538850 -561880,738630l1418640 1094760c441850,-467360 1069250,-1146690 1184230,-1877660 52500,-333800 -33390,-701840 -251460,-981980 -883790,-860120 -2678250,-838620 -5349140,118150 0,-30 -230,0 -260,40 -83460,22590 -141420,98340 -141420,184830 0,0 0,0 0,0l-40 -40z"/>
    <path id="path1013" class="fil0" d="M8063040 7581440c0,40 0,40 0,40 -105700,0 -191440,85740 -191440,191450 -150,598520 -11970,1269970 -19180,1742220 9910,864050 -59830,1753900 -512610,1767660 -292700,-69920 -538850,-370100 -738630,-561890l-1094750 1418640c467350,441860 1146690,1069260 1877660,1184230 333790,52500 701840,-33390 981980,-251450 860120,-883790 838620,-2678260 -118160,-5349140 0,-40 -80,-230 -80,-300 -22580,-83460 -98340,-141460 -184790,-141460 0,0 0,0 0,0z"/>
    <path id="path1015" class="fil0" d="M6425100 8070710c40,-105700 -85700,-191440 -191410,-191440 -598520,-190 -1269970,-11970 -1742220,-19180 -864050,9910 -1753900,-59830 -1767660,-512610 69930,-292700 370110,-538850 561890,-738630l-1418640 -1094750c-441860,467350 -1069250,1146690 -1184230,1877660 -52500,333790 33420,701840 251450,981980 883790,860120 2678260,838620 5349150,-118160 0,0 180,-40 260,-40 83460,-22620 141410,-98380 141410,-184830 0,0 0,0 0,0z"/>
    <path id="path1017" class="fil0" d="M6653490 5848940c35900,35860 84660,56050 135400,56050 50770,0 99500,-20190 135390,-56050 423350,-423090 906490,-889550 1245520,-1218370 603950,-617970 1282490,-1197880 1612360,-887460 157540,256440 119320,642730 124970,919580l1777260 -229030c-18020,-642910 -54740,-1566890 -490320,-2165090 -198880,-273140 -519890,-472630 -872160,-516560 -1233140,16750 -2486810,1300820 -3698860,3865960 -70,70 -180,190 -180,300 -16610,28940 -25390,61840 -25390,95270 0,50780 20190,99500 56050,135360l-40 40z"/>
    <path id="path1019" class="fil0" d="M8157650 6661160c-35900,35860 -56090,84620 -56090,135360 0,50780 20190,99500 56090,135390 423080,423350 889540,906490 1218370,1245520 617970,603950 1197880,1282500 887450,1612370 -256430,157530 -642730,119310 -919570,124960l229020 1777260c642910,-18020 1566900,-54740 2165090,-490310 273150,-198890 472630,-519900 516570,-872170 -16760,-1233140 -1300820,-2486800 -3865970,-3698850 -110,-40 -220,-150 -330,-190 -28980,-16600 -61850,-25430 -95280,-25430 -50770,0 -99500,20190 -135390,56090l40 0z"/>
    <path id="path1021" class="fil0" d="M7345390 8165310c-35860,-35850 -84620,-56050 -135360,-56050 -50780,0 -99500,20200 -135400,56050 -423350,423090 -906480,889550 -1245510,1218370 -603950,617980 -1282500,1197880 -1612370,887460 -157530,-256430 -119320,-642730 -124960,-919570l-1777270 229020c18030,642910 54740,1566900 490320,2165090 198890,273150 519890,472630 872160,516570 1233140,-16760 2486810,-1300820 3698860,-3865970 40,-70 190,-220 190,-300 16600,-28970 25390,-61840 25390,-95270 0,-50780 -20200,-99540 -56050,-135400z"/>
    <path id="path1023" class="fil0" d="M5841230 7353060c35930,-35860 56130,-84580 56130,-135360 0,-50780 -20200,-99500 -56090,-135360 -423090,-423350 -889550,-906490 -1218370,-1245520 -617970,-603950 -1197880,-1282490 -887460,-1612360 256440,-157530 642730,-119320 919580,-124970l-229030 -1777260c-642910,18020 -1566890,54740 -2165090,490320 -273140,198880 -472630,519890 -516560,872160 16750,1233140 1300820,2486810 3865960,3698860 110,30 220,110 340,180 28980,16610 61880,25390 95310,25390 50740,0 99500,-20190 135360,-56050l-80 -30z"/>
   </g>
  </g>
 </g>
</svg>
